<?xml version="1.0" encoding="utf-8"?>
<!-- Generator: Adobe Illustrator 29.0.1, SVG Export Plug-In . SVG Version: 9.03 Build 54978)  -->
<svg version="1.1" xmlns="http://www.w3.org/2000/svg" xmlns:xlink="http://www.w3.org/1999/xlink" x="0px" y="0px"
	 viewBox="0 0 462.09 125.09" style="enable-background:new 0 0 462.09 125.09;" xml:space="preserve">
<style type="text/css">
	.st0{fill:#FFFFFF;}
	.st1{fill:none;stroke:#FFFFFF;stroke-width:15;stroke-miterlimit:10;}
	.st2{fill:#E67009;}
</style>
<g id="achter">
</g>
<g id="wit">
	<circle class="st0" cx="18.97" cy="18.9" r="9.79"/>
	<g>
		<circle class="st0" cx="18.96" cy="18.88" r="9.79"/>
		<path class="st0" d="M453.73,62.97c-0.32-17.55-12.26-30.79-30.83-30.93c-6.97-0.05-176.69-0.26-190.05,0.04
			c-18.18,0.41-30.98,14.17-30.91,30.85c0.05,11.43,0.07,14.08-0.2,23.61c-0.37,13.06-9.67,30.22-30.91,30.22
			c32.27,0,220.13,0,252.04-0.1c18.39-0.06,30.98-12.65,30.91-30.85C453.76,80.03,453.85,69.12,453.73,62.97z"/>
	</g>
</g>
<g id="Laag_1">
	<g>
		<path class="st0" d="M152.48,55.81h6.64l8.77,28.69c0.29,1.06,0.95,1.59,1.99,1.59c1.03-0.07,1.71-0.6,2.02-1.59l8.77-28.69h6.61
			l-9.44,30.99c-0.54,1.71-1.53,3.11-2.98,4.22c-1.45,1.1-3.11,1.65-4.97,1.65c-1.87,0-3.53-0.56-4.99-1.67
			c-1.46-1.11-2.44-2.51-2.93-4.2L152.48,55.81z"/>
	</g>
	<path class="st1" d="M31.97,33.47"/>
	<path class="st1" d="M57.91,55.18"/>
	<path class="st2" d="M462.09,62.33c0.04-21.82-18.49-39.27-39.19-39.27c-6.2,0-350.99,0.03-352.92,0.03
		c-6.3,0-12.35,1.62-17.73,4.45c-3.11,1.05-17.34,8.65-15.27-2.73c0.6-1.85,0.94-3.82,0.94-5.87C37.92,8.48,29.44,0,18.98,0
		C8.52,0,0.04,8.48,0.04,18.94s8.48,18.94,18.94,18.94c1.93,0,3.79-0.29,5.54-0.83c11.06-3.58,8.99,9.67,7.52,15.5
		c-0.34,1.36-1.1,4.01-1.3,9.75c-0.43,11.97,0.03,11.51,0.03,23.48c0,21.65,18.45,39.27,39.19,39.27c5.63,0,350.82-0.03,352.92-0.03
		c22.39-0.04,39.26-18.65,39.26-39.2C462.12,78.54,462.08,69.72,462.09,62.33z M18.96,28.67c-5.41,0-9.79-4.38-9.79-9.79
		s4.38-9.79,9.79-9.79c5.41,0,9.79,4.38,9.79,9.79S24.37,28.67,18.96,28.67z M453.78,85.82c0.07,18.2-12.52,30.79-30.91,30.85
		c-31.91,0.1-219.78,0.1-252.04,0.1c21.25,0.01,30.54-17.15,30.91-30.22c0.27-9.54,0.25-12.19,0.2-23.61
		c-0.07-16.69,12.73-30.44,30.91-30.85c13.35-0.3,183.07-0.1,190.05-0.04c18.57,0.14,30.52,13.37,30.83,30.93
		C453.85,69.12,453.76,80.03,453.78,85.82z"/>
</g>
<g id="txt">
	<g>
		<g>
			<path class="st2" d="M236.36,62.39h-5.1c-6.22,0-12.37,4.05-12.37,11.7c0,7.65,6.15,11.7,12.37,11.7h5.1v6.3h-6.3
				c-8.4,0-18.07-6.45-18.07-18c0-11.55,9.67-18,18.07-18h6.3V62.39z"/>
			<path class="st2" d="M260.79,55.34c9.97,0,18.67,7.65,18.67,18.75c0,11.1-8.7,18.75-18.67,18.75s-18.67-7.65-18.67-18.75
				C242.11,62.99,250.81,55.34,260.79,55.34z M260.79,86.53c6.83,0,11.77-5.1,11.77-12.45c0-7.35-4.95-12.45-11.77-12.45
				c-6.82,0-11.77,5.1-11.77,12.45C249.01,81.43,253.96,86.53,260.79,86.53z"/>
			<path class="st2" d="M286.01,92.08v-21c0-9.45,6.6-15.75,15.37-15.75s15.37,6.3,15.37,15.75v21h-6.6v-21
				c0-5.55-4.05-9.45-8.77-9.45s-8.77,3.9-8.77,9.45v21H286.01z"/>
			<path class="st2" d="M332.64,82.05l-2.7-5.25l21.3-11.71c-2.25-2.25-4.12-3.45-8.17-3.45c-6.82,0-11.77,5.1-11.77,12.45
				c0,7.35,4.95,12.45,11.77,12.45c7.8,0,10.72-4.65,12.07-11.25l6.67,0.83c-0.75,9.52-8.4,16.72-18.75,16.72
				c-9.97,0-18.67-7.65-18.67-18.75c0-11.1,8.7-18.75,18.67-18.75c8.4,0,14.02,4.42,17.4,11.4L332.64,82.05z"/>
			<path class="st2" d="M367.36,85.78c6.22-0.3,10.8-5.47,10.8-11.7c0-6.22-4.58-11.4-10.8-11.7v-6.3c6.3,0.38,11.33,3.23,14.02,9
				c2.03-5.7,8.25-9,14.1-9v6.3c-6.15,0.3-10.72,5.47-10.72,11.7c0,6.23,4.58,11.4,10.72,11.7v6.3c-6.07,0-11.02-3-14.1-8.4
				c-2.92,5.4-7.57,8.4-14.02,8.4V85.78z"/>
			<path class="st2" d="M424.93,62.39h-12.9v18.9c0,3.37,1.58,4.5,4.95,4.5h7.95v6.3h-8.85c-6.75,0-10.65-4.5-10.65-11.62V47.09h6.6
				v9h12.9V62.39z"/>
		</g>
		<g>
			<path class="st0" d="M98.69,60.26c-3.67-3.31-8.33-4.97-13.96-4.97c-5.64,0-10.29,1.66-13.96,4.97
				c-3.67,3.31-5.51,7.55-5.51,12.71c0,5.14,1.84,9.36,5.51,12.65c3.67,3.29,8.32,4.93,13.96,4.93c2.81,0,4.94-0.56,5.81-0.81
				c3.31-0.95,5.7-2.53,7.09-3.62c0,0.2,0,0.31,0,0.32c0,0,0,2.18,0,2.19c0,2.27-1.11,4.23-3.34,5.89c-2.47,1.86-5.66,2.8-9.56,2.8
				c-1.98,0-4.29-0.25-6.94-0.76c-2.65-0.5-4.94-1.13-6.87-1.87l-1.85,5.72c2.2,0.83,4.75,1.5,7.65,2c2.9,0.51,5.57,0.76,8.02,0.76
				c5.95,0,10.78-1.56,14.48-4.68c1.57-1.33,2.8-2.85,3.67-4.58c0.88-1.73,1.31-3.49,1.31-5.29V72.98
				C104.19,67.81,102.36,63.58,98.69,60.26z M97.62,72.98c0,0.02,0,0.49,0,1.25c-0.22,1.38,0,3.45-3.38,6.87
				c-0.28,0.29-1.37,1.38-3.15,2.24c-1.89,0.91-4.01,1.36-6.37,1.36c-3.73,0-6.81-1.1-9.25-3.3c-2.44-2.2-3.65-5.01-3.65-8.42
				c0-3.44,1.22-6.26,3.67-8.49c2.45-2.22,5.52-3.33,9.23-3.33c3.7,0,6.78,1.11,9.23,3.33c1.08,0.98,1.92,2.08,2.53,3.3
				C97.53,69.91,97.65,71.88,97.62,72.98z"/>
			<path class="st0" d="M143.59,60.62c-1.82-1.71-3.91-3.02-6.28-3.94c-2.37-0.92-4.87-1.38-7.49-1.38c-2.63,0-5.12,0.46-7.49,1.38
				c-2.37,0.92-4.46,2.24-6.28,3.94c-3.79,3.61-5.69,8.1-5.69,13.44c0,5.34,1.9,9.81,5.69,13.41c1.82,1.73,3.91,3.05,6.28,3.97
				c2.37,0.92,4.87,1.38,7.49,1.38c2.63,0,5.13-0.46,7.49-1.38c2.37-0.92,4.46-2.24,6.28-3.97c3.79-3.59,5.69-8.06,5.69-13.41
				C149.28,68.71,147.38,64.23,143.59,60.62z M138.92,83.16c-2.53,2.53-5.56,3.79-9.11,3.79c-3.55,0-6.58-1.26-9.11-3.79
				c-2.53-2.53-3.79-5.56-3.79-9.11c0-3.55,1.26-6.58,3.79-9.11c2.53-2.53,5.56-3.79,9.11-3.79c3.55,0,6.58,1.26,9.11,3.79
				c2.53,2.53,3.79,5.56,3.79,9.11C142.71,77.6,141.45,80.64,138.92,83.16z"/>
			<path class="st0" d="M152.54,56h6.64l8.76,28.66c0.29,1.06,0.95,1.58,1.99,1.58c1.03-0.07,1.71-0.6,2.02-1.58L180.69,56h6.6
				l-9.43,30.95c-0.54,1.71-1.53,3.11-2.98,4.21c-1.45,1.1-3.1,1.65-4.97,1.65c-1.86,0-3.53-0.56-4.98-1.67
				c-1.46-1.11-2.44-2.51-2.93-4.19L152.54,56z"/>
		</g>
	</g>
</g>
</svg>
