<?xml version="1.0" encoding="UTF-8"?>
<!-- Generator: visioncortex VTracer -->
<svg id="svg" version="1.1" xmlns="http://www.w3.org/2000/svg" style="display: block;" viewBox="0 0 1280 494"><path d="M0,0 L12,0 L25,4 L35,10 L42,17 L48,27 L51,38 L51,53 L50,58 L50,71 L54,72 L61,72 L75,68 L96,59 L112,55 L120,54 L962,54 L979,57 L995,63 L1007,70 L1017,78 L1028,89 L1038,104 L1044,118 L1047,129 L1048,135 L1048,215 L1044,232 L1038,246 L1030,258 L1021,268 L1014,275 L999,285 L982,292 L966,295 L114,295 L100,292 L85,286 L73,279 L60,268 L51,258 L43,245 L37,232 L33,215 L32,183 L32,151 L33,135 L37,115 L37,97 L34,90 L25,88 L9,91 L-4,90 L-15,86 L-24,80 L-31,73 L-38,59 L-39,55 L-39,36 L-35,25 L-29,16 L-22,9 L-14,4 L-5,1 Z " transform="translate(127,85)" style="fill: #E77007;"/><path d="M0,0 L460,0 L473,2 L486,7 L497,13 L509,24 L518,38 L523,50 L526,65 L526,137 L521,156 L515,168 L506,179 L495,188 L480,195 L460,199 L-128,199 L-128,198 L-112,194 L-98,187 L-87,178 L-79,167 L-72,153 L-68,139 L-67,132 L-66,62 L-63,49 L-55,33 L-47,23 L-37,14 L-23,6 L-7,1 Z " transform="translate(629,161)" style="fill: #FEFEFD;"/><path d="M0,0 L19,0 L31,3 L41,9 L46,13 L53,23 L56,31 L56,85 L51,95 L47,100 L37,107 L23,112 L-5,112 L-22,108 L-26,106 L-25,99 L-23,93 L-14,94 L-8,96 L1,97 L19,97 L30,93 L34,90 L36,90 L38,86 L40,81 L41,73 L26,81 L16,83 L4,83 L-6,81 L-20,74 L-28,66 L-34,54 L-35,51 L-35,32 L-32,23 L-25,13 L-16,6 L-8,2 Z " transform="translate(277,216)" style="fill: #FEFBF9;"/><path d="M0,0 L18,0 L28,3 L39,9 L47,17 L52,25 L55,34 L55,51 L51,64 L44,74 L34,82 L22,87 L16,88 L0,88 L-11,84 L-21,78 L-28,71 L-35,57 L-36,53 L-36,33 L-31,21 L-22,11 L-14,5 L-5,1 Z " transform="translate(384,216)" style="fill: #FEFCFA;"/><path d="M0,0 L16,0 L28,4 L37,10 L42,15 L48,23 L52,34 L52,52 L48,64 L42,73 L35,80 L23,86 L14,88 L1,88 L-12,84 L-23,76 L-30,67 L-35,55 L-36,51 L-36,36 L-32,24 L-25,14 L-17,7 L-5,1 Z " transform="translate(693,216)" style="fill: #E7720B;"/><path d="M0,0 L17,0 L30,4 L39,10 L47,19 L50,24 L49,28 L25,41 L7,51 L-11,61 L-10,65 L0,71 L3,72 L16,72 L25,69 L30,64 L34,58 L38,47 L54,48 L53,57 L46,71 L42,76 L32,83 L22,87 L16,88 L2,88 L-8,85 L-18,79 L-26,71 L-32,59 L-34,51 L-34,35 L-31,25 L-24,14 L-14,6 L-6,2 Z " transform="translate(885,216)" style="fill: #E7720A;"/><path d="M0,0 L15,0 L26,4 L34,10 L40,18 L43,25 L44,32 L44,86 L28,86 L27,30 L24,24 L19,19 L14,16 L2,16 L-4,19 L-10,26 L-12,31 L-13,86 L-29,86 L-29,30 L-25,19 L-19,10 L-11,4 L-5,1 Z " transform="translate(789,216)" style="fill: #E7730C;"/><path d="M0,0 L15,0 L25,4 L32,10 L37,18 L38,21 L38,39 L33,48 L26,55 L15,60 L1,60 L-9,55 L-14,51 L-19,44 L-22,36 L-22,23 L-16,11 L-7,3 Z " transform="translate(385,230)" style="fill: #E77109;"/><path d="M0,0 L16,0 L23,24 L29,42 L34,60 L38,70 L43,70 L45,68 L51,47 L59,21 L65,1 L66,0 L82,0 L79,10 L73,30 L66,54 L59,75 L55,81 L50,85 L46,87 L35,87 L27,82 L23,77 L18,61 L11,40 L5,19 L0,4 Z " transform="translate(447,217)" style="fill: #FEFAF7;"/><path d="M0,0 L10,1 L20,5 L28,12 L32,18 L35,15 L42,7 L53,1 L58,0 L66,0 L66,15 L57,17 L48,23 L43,32 L42,36 L42,48 L46,58 L55,66 L60,68 L66,69 L66,84 L57,84 L47,80 L37,71 L33,66 L22,78 L14,82 L7,84 L0,84 L0,69 L10,66 L16,62 L22,54 L24,49 L24,35 L19,25 L11,18 L0,15 Z " transform="translate(952,218)" style="fill: #E7720A;"/><path d="M0,0 L17,0 L27,4 L35,11 L39,19 L39,36 L34,44 L26,51 L16,55 L4,55 L-6,52 L-15,45 L-20,37 L-21,32 L-21,21 L-16,11 L-7,3 Z " transform="translate(278,230)" style="fill: #E77109;"/><path d="M0,0 L14,0 L23,4 L28,8 L33,16 L35,22 L35,36 L29,48 L21,55 L13,58 L0,58 L-10,53 L-16,46 L-20,36 L-20,20 L-15,10 L-7,3 Z " transform="translate(694,231)" style="fill: #FEFDFC;"/><path d="M0,0 L16,0 L16,22 L46,22 L46,37 L16,37 L17,86 L21,90 L46,91 L46,106 L18,106 L10,102 L5,97 L1,89 L0,84 Z " transform="translate(1041,196)" style="fill: #E7730D;"/><path d="M0,0 L25,0 L25,15 L4,16 L-6,21 L-12,28 L-15,36 L-15,48 L-11,57 L-6,63 L2,67 L6,68 L25,69 L25,84 L1,84 L-11,79 L-17,75 L-22,71 L-28,62 L-31,56 L-32,50 L-32,31 L-28,21 L-21,12 L-10,4 Z " transform="translate(619,218)" style="fill: #E7720B;"/><path d="M0,0 L7,0 L17,4 L24,11 L27,18 L27,28 L22,38 L15,44 L9,46 L-3,46 L-11,41 L-17,34 L-19,28 L-19,17 L-15,9 L-8,3 Z " transform="translate(129,107)" style="fill: #FEFCFB;"/><path d="M0,0 L15,0 L23,4 L26,8 L16,14 L-13,30 L-18,33 L-20,33 L-20,23 L-17,14 L-11,6 L-3,1 Z " transform="translate(887,231)" style="fill: #FEFBF9;"/><path d="M0,0 L4,1 L579,2 L579,3 L-9,3 L-9,2 Z " transform="translate(510,357)" style="fill: #FCE9D9;"/></svg>